AB28_05Apr_ss_11ms_01
version=1
nRows=38
nColumns=19
inDegrees=yes
endheader
time	ground_force1_vx	ground_force1_vy	ground_force1_vz	ground_force1_px	ground_force1_py	ground_force1_pz	ground_torque1_x	ground_torque1_y	ground_torque1_z	ground_force2_vx	ground_force2_vy	ground_force2_vz	ground_force2_px	ground_force2_py	ground_force2_pz	ground_torque2_x	ground_torque2_y	ground_torque2_z
18.948000	-0.000000	-0.000000	0.000000	0.238500	0.000000	-0.812500	0.000000	0.000000	-0.000000	-35.283508	618.752258	38.307186	0.566993	0.000000	-0.889197	0.000003	-16.417370	0.000000	
18.949000	-0.000000	-0.000000	0.000000	0.238500	0.000000	-0.812500	0.000000	0.000000	-0.000000	-23.076477	620.879944	35.408016	0.576102	0.000000	-0.892418	0.000042	-13.295950	0.000002	
18.950000	-0.000000	-0.000000	0.000000	0.238500	0.000000	-0.812500	0.000000	0.000000	-0.000000	-15.294495	613.281067	36.018368	0.576372	0.000000	-0.888801	0.000037	-9.203515	-0.000003	
18.951000	-0.000000	-0.000000	0.000000	0.238500	0.000000	-0.812500	0.000000	0.000000	-0.000000	-23.076477	604.162415	40.138241	0.563546	0.000000	-0.877658	0.000025	-11.410313	0.000052	
18.952000	-0.000000	-0.000000	0.000000	0.238500	0.000000	-0.812500	0.000000	0.000000	-0.000000	-33.299866	597.779358	41.511532	0.551973	0.000000	-0.875637	0.000020	-8.796119	0.000007	
18.953000	-0.000000	-0.000000	0.000000	0.238500	0.000000	-0.812500	0.000000	0.000000	-0.000000	-41.234436	598.387268	39.985653	0.550737	0.000000	-0.880032	-0.000002	-3.714250	0.000029	
18.954000	-0.000000	-0.000000	0.000000	0.238500	0.000000	-0.812500	0.000000	0.000000	-0.000000	-35.588684	598.691223	38.154598	0.559995	0.000000	-0.882023	0.000026	-4.720588	0.000039	
18.955000	-0.000000	-0.000000	0.000000	0.238500	0.000000	-0.812500	0.000000	0.000000	-0.000000	-22.008362	597.779358	40.290829	0.571756	0.000000	-0.869941	0.000015	-3.387573	0.000006	
18.956000	-0.000000	-0.000000	0.000000	0.238500	0.000000	-0.812500	0.000000	0.000000	-0.000000	-16.972961	592.916077	45.326229	0.572254	0.000000	-0.865590	0.000026	2.787681	0.000010	
18.957000	-0.000000	-0.000000	0.000000	0.238500	0.000000	-0.812500	0.000000	0.000000	-0.000000	-25.975647	593.827942	43.342587	0.567334	0.000000	-0.874092	0.000050	3.641541	0.000001	
18.958000	-0.000000	-0.000000	0.000000	0.238500	0.000000	-0.812500	0.000000	0.000000	-0.000000	-39.098206	599.907043	36.476131	0.562344	0.000000	-0.881046	0.000007	0.865455	0.000022	
18.959000	-0.000000	-0.000000	0.000000	0.238500	0.000000	-0.812500	0.000000	0.000000	-0.000000	-38.182678	598.083313	31.745909	0.559838	0.000000	-0.883326	0.000021	-0.097016	0.000033	
18.960000	-0.000000	-0.000000	0.000000	0.238500	0.000000	-0.812500	0.000000	0.000000	-0.000000	-28.722229	597.171448	32.814022	0.563689	0.000000	-0.881824	0.000046	4.017660	0.000005	
18.961000	-0.000000	-0.000000	0.000000	0.238500	0.000000	-0.812500	0.000000	0.000000	-0.000000	-24.144592	596.259583	34.797665	0.569088	0.000000	-0.876646	0.000027	3.029624	0.000019	
18.962000	-0.000000	-0.000000	0.000000	0.238500	0.000000	-0.812500	0.000000	0.000000	-0.000000	-28.417053	595.955627	36.018368	0.570421	0.000000	-0.870155	0.000023	-6.888941	0.000011	
18.963000	-0.000000	-0.000000	0.000000	0.238500	0.000000	-0.812500	0.000000	0.000000	-0.000000	-28.722229	586.229065	33.424374	0.568804	0.000000	-0.868411	0.000020	-3.617203	0.000019	
18.964000	-0.000000	-0.000000	0.000000	0.238500	0.000000	-0.812500	0.000000	0.000000	-0.000000	-24.297180	580.149963	30.525206	0.566877	0.000000	-0.858225	0.000053	-4.283578	0.000019	
18.965000	-0.000000	-0.000000	0.000000	0.238500	0.000000	-0.812500	0.000000	0.000000	-0.000000	-31.011047	578.022278	32.051083	0.559864	0.000000	-0.853389	0.000035	-11.265487	0.000020	
18.966000	-0.000000	-0.000000	0.000000	0.238500	0.000000	-0.812500	0.000000	0.000000	-0.000000	-32.384338	577.110413	30.525206	0.556843	0.000000	-0.864431	0.000036	-7.211675	0.000005	
18.967000	-0.000000	-0.000000	0.000000	0.238500	0.000000	-0.812500	0.000000	0.000000	-0.000000	-29.332581	579.846008	29.304502	0.558510	0.000000	-0.872937	0.000004	-3.190528	0.000037	
18.968000	-0.000000	-0.000000	0.000000	0.238500	0.000000	-0.812500	0.000000	0.000000	-0.000000	-26.585999	582.581604	31.288145	0.562388	0.000000	-0.872178	0.000022	-7.728938	0.000020	
18.969000	-0.000000	-0.000000	0.000000	0.238500	0.000000	-0.812500	0.000000	0.000000	-0.000000	-17.888489	585.317200	32.356258	0.573138	0.000000	-0.867686	0.000019	-9.574481	0.000005	
18.970000	-0.000000	-0.000000	0.000000	0.238500	0.000000	-0.812500	0.000000	0.000000	-0.000000	-17.125549	588.356750	31.440733	0.579706	0.000000	-0.865684	0.000011	-7.052766	0.000032	
18.971000	-0.000000	-0.000000	0.000000	0.238500	0.000000	-0.812500	0.000000	0.000000	-0.000000	-24.754944	584.405334	31.898497	0.572786	0.000000	-0.867791	0.000028	-7.688809	-0.000005	
18.972000	-0.000000	-0.000000	0.000000	0.238500	0.000000	-0.812500	0.000000	0.000000	-0.000000	-33.452454	575.286682	33.271786	0.560055	0.000000	-0.865903	0.000019	-5.832566	0.000001	
18.973000	-0.000000	-0.000000	0.000000	0.238500	0.000000	-0.812500	0.000000	0.000000	-0.000000	-35.130920	568.295715	34.034725	0.556269	0.000000	-0.861148	0.000021	-1.910428	-0.000011	
18.974000	-0.000000	-0.000000	0.000000	0.238500	0.000000	-0.812500	0.000000	0.000000	-0.000000	-32.384338	567.991760	30.830381	0.559811	0.000000	-0.862037	0.000028	2.021467	0.000017	
18.975000	-0.000000	-0.000000	0.000000	0.238500	0.000000	-0.812500	0.000000	0.000000	-0.000000	-28.417053	574.678772	28.694151	0.569184	0.000000	-0.864703	0.000047	4.376567	0.000009	
18.976000	-0.000000	-0.000000	0.000000	0.238500	0.000000	-0.812500	0.000000	0.000000	-0.000000	-25.517883	578.630188	27.778624	0.577036	0.000000	-0.862161	0.000015	2.321987	0.000025	
18.977000	-0.000000	-0.000000	0.000000	0.238500	0.000000	-0.812500	0.000000	0.000000	-0.000000	-23.076477	573.462952	28.236387	0.574330	0.000000	-0.858902	0.000023	2.715715	0.000021	
18.978000	-0.000000	-0.000000	0.000000	0.238500	0.000000	-0.812500	0.000000	0.000000	-0.000000	-25.212708	569.207581	27.931211	0.566845	0.000000	-0.855922	0.000041	7.128426	0.000008	
18.979000	-0.000000	-0.000000	0.000000	0.238500	0.000000	-0.812500	0.000000	0.000000	-0.000000	-31.163635	568.599670	26.100157	0.562661	0.000000	-0.854271	0.000027	2.271469	0.000033	
18.980000	-0.000000	-0.000000	0.000000	0.238500	0.000000	-0.812500	0.000000	0.000000	-0.000000	-34.215393	569.207581	24.726866	0.561081	0.000000	-0.861050	0.000027	-5.658293	0.000003	
18.981000	-0.000000	-0.000000	0.000000	0.238500	0.000000	-0.812500	0.000000	0.000000	-0.000000	-30.705872	571.031311	26.252745	0.564111	0.000000	-0.862559	0.000031	-7.118954	0.000028	
18.982000	-0.000000	-0.000000	0.000000	0.238500	0.000000	-0.812500	0.000000	0.000000	-0.000000	-25.517883	569.511536	26.557920	0.569067	0.000000	-0.852903	0.000040	-9.285806	0.000023	
18.983000	-0.000000	-0.000000	0.000000	0.238500	0.000000	-0.812500	0.000000	0.000000	-0.000000	-23.839417	568.295715	25.032042	0.573856	0.000000	-0.850448	0.000025	-15.773926	0.000027	
18.984000	-0.000000	-0.000000	0.000000	0.238500	0.000000	-0.812500	0.000000	0.000000	-0.000000	-22.008362	569.511536	27.931211	0.576167	0.000000	-0.847778	0.000022	-17.049970	0.000035	
18.985000	-0.000000	-0.000000	0.000000	0.238500	0.000000	-0.812500	0.000000	0.000000	-0.000000	-24.602356	566.471985	29.762266	0.571112	0.000000	-0.853186	0.000037	-9.214876	0.000011	
